<svg width="502" height="480" viewBox="0 0 502 480" fill="none" xmlns="http://www.w3.org/2000/svg">
<path d="M2.3418 224.942C21.9339 60.3978 211.003 -33.2809 353.546 53.3145L355.221 54.3418C372.964 65.3312 392.188 79.5597 404.146 96.5869L404.738 97.4317L405.179 96.4981L413.394 79.0879L457.689 101.817L380.496 246.831C378.346 250.373 376.26 252.088 373.88 252.702C371.46 253.326 368.611 252.85 364.842 251.698L364.29 251.529L364.1 252.074C362.625 256.304 360.875 261.391 360.635 266.233C360.401 270.957 361.602 275.521 365.919 278.842L366.347 279.159C369.026 281.082 371.631 281.682 374.14 281.366C376.626 281.054 378.96 279.85 381.135 278.278C383.311 276.706 385.372 274.732 387.305 272.833C389.009 271.159 390.604 269.552 392.121 268.278L392.767 267.754C399.169 262.741 405.062 258.638 411.367 256.647C417.639 254.665 424.358 254.762 432.438 258.243H432.439C434.395 259.085 437.125 260.856 440.137 263.211C443.139 265.558 446.387 268.46 449.377 271.534C452.368 274.61 455.087 277.845 457.039 280.859C459.007 283.899 460.131 286.618 460.076 288.686V288.687C460.025 290.691 459.338 292.269 458.498 293.8C457.675 295.3 456.642 296.847 456.093 298.613V298.614C436.171 362.943 407.893 410.265 348.609 445.526C184.466 543.174 -20.4165 416.094 2.3418 224.942ZM402.57 101.819C325.965 13.2903 190.275 1.89034 97.3535 72.3535C-92.9432 216.673 38.674 516.753 274.767 468.35C362.942 450.271 433.595 379.497 452.063 291.515L452.139 291.158L451.856 290.928C449.731 289.188 447.557 286.902 445.277 284.405C443.007 281.919 440.632 279.225 438.138 276.719C433.163 271.72 427.58 267.326 421.073 266.704C419.467 266.55 417.422 266.932 415.264 267.635C413.092 268.342 410.751 269.395 408.532 270.633C406.314 271.871 404.203 273.304 402.496 274.779C400.801 276.244 399.454 277.795 398.833 279.28C398.198 280.799 398.104 282.235 398.079 283.57C398.053 284.93 398.093 286.132 397.793 287.359V287.36C383.64 345.607 344.012 390.203 286.981 409.734H286.98C285.752 410.157 282.887 411.176 280.144 411.828C278.768 412.155 277.457 412.38 276.413 412.401C275.891 412.412 275.465 412.371 275.144 412.281C274.902 412.214 274.749 412.128 274.653 412.041L274.308 409.722C299.118 403.044 320.681 390.787 340.475 374.697C355.983 362.096 366.715 351.018 376.324 333.217C384.53 318.009 390.791 301.363 394.204 284.38L394.486 282.98L393.289 283.759C386.279 288.324 381.296 293.054 372.582 293.122L372.158 293.125L372.02 293.524C355.665 340.605 318.522 377.078 269.18 387.522C269.186 386.272 269.722 385.269 270.646 384.412C271.752 383.386 273.405 382.581 275.346 381.9C277.279 381.223 279.431 380.69 281.502 380.174C283.554 379.663 285.544 379.165 287.085 378.561C325.218 363.631 356.046 332.857 367.273 293.005L367.423 292.476L366.908 292.28C356.838 288.47 351.518 281.572 349.75 273.469C347.975 265.332 349.77 255.915 354.085 247.116L354.183 246.916L354.127 246.701C354.058 246.435 353.861 246.2 353.71 246.036C353.535 245.847 353.31 245.64 353.062 245.428C352.563 245.003 351.918 244.509 351.278 244.02C350.631 243.524 349.987 243.029 349.465 242.587C349.204 242.366 348.982 242.165 348.81 241.989C348.63 241.806 348.534 241.678 348.494 241.605L348.492 241.603C348.049 240.796 347.788 239.574 347.714 238.264C347.641 236.977 347.754 235.685 347.998 234.747L402.671 102.44L402.812 102.099L402.57 101.819Z" fill="white" stroke="#3C6AFF" stroke-width="1.2"/>
<path d="M421.519 19.9805C448.948 -20.4717 511.752 7.76985 498.735 55.4111L421.519 19.9805Z" fill="white" stroke="#3C6AFF" stroke-width="1.2"/>
<path d="M489.327 73.2661C488.046 74.0276 486.842 74.9409 485.677 75.897C484.176 77.1291 482.802 78.3716 481.311 79.5493C478.406 81.8446 475.385 83.61 471.52 83.4751L417.669 57.7857C416.826 57.0699 416.126 55.7349 415.597 53.9439C415.064 52.1407 414.729 49.9688 414.559 47.7349C414.252 43.672 414.5 39.5092 415.037 37.1031L489.327 73.2661Z" fill="white" stroke="#3C6AFF" stroke-width="1.2"/>
<path d="M417.315 24.1541C417.961 23.8771 418.648 23.8517 419.363 24.2009L419.37 24.2039L497.006 60.9998C497.403 61.4401 497.614 62.0688 497.632 62.8416C497.652 63.6565 497.456 64.5776 497.101 65.4578C496.747 66.3369 496.246 67.1424 495.688 67.7341C495.175 68.2783 494.659 68.5921 494.203 68.6814C467.456 56.366 439.947 44.3418 414.238 30.1775C414.114 29.6207 414.146 28.924 414.336 28.1726C414.549 27.326 414.951 26.4597 415.481 25.7312C416.013 24.9993 416.65 24.4389 417.315 24.1541Z" fill="white" stroke="#3C6AFF" stroke-width="1.2"/>
<path d="M414.722 60.0173C415.461 60.5143 416.855 61.2528 418.692 62.156C420.674 63.1306 423.219 64.3217 426.119 65.655C431.914 68.319 439.172 71.5682 446.217 74.7888C453.273 78.0144 460.133 81.2192 465.178 83.8142C467.703 85.1131 469.758 86.2509 471.152 87.157C471.852 87.6123 472.361 87.9937 472.677 88.2947C472.826 88.4363 472.911 88.5413 472.954 88.6101C472.899 88.7521 472.776 88.96 472.544 89.2283C472.274 89.5413 471.899 89.8927 471.438 90.2654C470.516 91.01 469.296 91.8034 467.999 92.5066C466.702 93.21 465.349 93.8116 464.168 94.1824C463.578 94.3677 463.043 94.4919 462.587 94.5447C462.138 94.5967 461.806 94.5728 461.583 94.5056L414.383 72.6082L413.284 59.905L414.722 60.0173Z" fill="white" stroke="#3C6AFF" stroke-width="1.2"/>
<path d="M146.096 314.325C77.0068 235.909 147.395 115.204 249.734 131.134C271.127 134.467 294.27 145.469 308.661 161.548L303.711 164.065C262.514 124.94 198.571 126.843 157.636 165.302V165.28L156.62 166.259C103.207 217.731 119.037 308.184 187.715 336.975C248.636 362.512 318.451 325.719 333.056 262.112C333.103 262.071 333.18 262.019 333.301 261.963C333.485 261.879 333.731 261.806 334.034 261.753C334.639 261.646 335.395 261.629 336.145 261.706C336.898 261.783 337.605 261.95 338.123 262.184C338.58 262.391 338.771 262.593 338.837 262.732C319.768 349.559 206.168 382.506 146.096 314.325Z" fill="white" stroke="#3C6AFF" stroke-width="1.2"/>
<path d="M179.662 171.915C212.24 147.982 255.844 149.989 286.648 175.72L282.13 179.191C251.246 154.801 208.476 154.372 178.226 180.276C136.484 216.02 144.649 282.944 191.404 310.18C238.902 337.844 299.45 311.739 310.103 257.916L315.912 258.755C304.132 317.157 238.299 345.436 187.019 314.15C135.426 282.671 130.442 208.071 179.662 171.915Z" fill="white" stroke="#3C6AFF" stroke-width="1.2"/>
<path d="M231.476 218.059C241.129 217.088 248.348 223.666 250.83 231.586C253.307 239.49 251.016 248.558 241.785 252.602C235.189 255.494 229.595 254.913 225.319 252.447C221.022 249.969 217.987 245.546 216.626 240.643C215.264 235.74 215.594 230.424 217.937 226.184C220.268 221.967 224.626 218.745 231.476 218.059Z" fill="white" stroke="#3C6AFF" stroke-width="1.2"/>
<path d="M421.231 282.298C421.615 282.276 422.14 282.375 422.845 282.678C423.128 282.967 423.385 283.513 423.574 284.332C423.769 285.181 423.871 286.218 423.908 287.314C423.98 289.503 423.789 291.836 423.621 293.166C421.934 306.323 415.88 322.525 408.017 337.947C400.156 353.363 390.516 367.945 381.698 377.863C372.018 388.75 354.662 402.16 336.13 413.6C317.593 425.044 297.97 434.461 283.774 437.424H283.772C282.295 437.737 280.803 437.718 279.247 437.662L279.35 434.82C341.953 415.748 395.888 374.863 415.471 310.185C416.15 307.937 417.177 304.826 418.064 301.848C418.959 298.841 419.761 295.809 420.033 293.533C420.139 292.636 420.01 291.264 419.881 289.86C419.749 288.415 419.608 286.875 419.65 285.533C419.671 284.864 419.736 284.266 419.863 283.768C419.99 283.267 420.169 282.907 420.386 282.673C420.589 282.456 420.851 282.319 421.231 282.298Z" fill="white" stroke="#3C6AFF" stroke-width="1.2"/>
<path d="M166.827 51.3664C171.286 50.0396 175.51 48.437 180.008 48.8039L179.92 51.6564C146.861 58.8988 117.585 77.5304 93.1966 100.303C67.2404 124.527 50.4844 154.543 37.2103 187.128L35.1771 188.256L33.6371 186.958V186.955C33.6434 186.846 33.6669 186.689 33.7132 186.482C33.8057 186.068 33.9768 185.51 34.223 184.818C34.7144 183.436 35.4838 181.581 36.4564 179.395C38.4001 175.025 41.1337 169.374 44.0091 163.629C49.7654 152.128 56.0628 140.306 57.7152 137.659C80.6395 100.943 124.054 64.4926 165.841 51.6652L166.827 51.3664Z" fill="white" stroke="#3C6AFF" stroke-width="1.2"/>
<path d="M186.92 77.658C161.466 83.9163 138.644 98.2557 118.772 114.81V114.811C95.4409 134.254 75.7396 166.515 67.0659 195.545L63.9312 195.641C63.8956 195.557 63.8613 195.441 63.8374 195.284C63.7889 194.965 63.7903 194.537 63.8511 193.999C63.9725 192.923 64.3177 191.509 64.8423 189.844C65.8894 186.522 67.6145 182.307 69.5347 178.018C73.3745 169.441 77.958 160.646 79.3452 158.253C94.5245 132.045 113.447 112.474 138.442 95.7273L139.637 94.9324C153.246 85.935 170.93 77.2125 187.004 74.9412L186.92 77.658Z" fill="white" stroke="#3C6AFF" stroke-width="1.2"/>
<path d="M190.749 101.054C192.098 101.1 192.861 101.669 193.125 102.228C193.388 102.785 193.27 103.581 192.286 104.257L192.285 104.258C192.247 104.284 192.101 104.353 191.789 104.452C191.5 104.544 191.124 104.644 190.68 104.751C189.792 104.965 188.667 105.2 187.48 105.444C185.136 105.926 182.507 106.453 181.167 106.926H181.166C165.482 112.466 148.091 123.929 133.098 137.858C118.106 151.786 105.458 168.23 99.3087 183.771H99.3078C98.6438 185.452 97.4577 189.926 96.2707 194.03C95.6717 196.101 95.0696 198.092 94.5236 199.632C94.2503 200.402 93.9952 201.047 93.7668 201.527C93.6525 201.767 93.5497 201.956 93.4601 202.094C93.4156 202.162 93.3784 202.214 93.3478 202.25L93.3 202.299C92.5178 202.875 92.2048 202.771 92.1076 202.713C92.0292 202.666 91.93 202.564 91.8302 202.359C91.731 202.156 91.6488 201.884 91.588 201.553C91.3716 200.371 91.4789 198.747 91.6115 197.703L91.6691 197.294C93.9343 182.669 103.573 166.253 115.79 151.551C127.998 136.86 142.715 123.958 155.031 116.352C159.021 113.887 165.676 110.105 172.451 106.917C175.839 105.323 179.249 103.881 182.364 102.826C185.49 101.767 188.279 101.112 190.441 101.061L190.749 101.054Z" fill="white" stroke="#3C6AFF" stroke-width="1.2"/>
<path d="M183.542 186.433C196.502 175.54 213.003 168.908 229.036 169.816V171.618C196.709 170.507 165.506 196.67 161.162 228.791V228.792C160.923 230.565 161.058 232.577 161.146 234.439C161.237 236.344 161.278 238.082 160.916 239.458C160.784 239.959 160.485 240.315 160.258 240.418C160.169 240.458 160.107 240.455 160.045 240.428C159.966 240.393 159.814 240.283 159.641 239.971V239.97L159.571 239.828C159.414 239.461 159.283 238.841 159.194 238.002C159.096 237.071 159.058 235.957 159.06 234.811C159.063 232.52 159.225 230.145 159.353 228.934L159.353 228.932C161.009 212.78 170.432 197.454 183.542 186.433Z" fill="white" stroke="#3C6AFF" stroke-width="1.2"/>
<path d="M297.21 257.574C297.552 257.457 297.838 257.479 298.046 257.578V257.58C298.015 257.777 297.948 258.063 297.847 258.424C297.648 259.14 297.337 260.085 296.996 261.068C296.312 263.035 295.517 265.103 295.264 265.696C284.652 290.585 256.952 311.191 229.284 309.679C229.393 308.994 229.681 308.585 230.043 308.319C230.537 307.957 231.269 307.783 232.21 307.735C233.144 307.688 234.178 307.768 235.231 307.836C236.128 307.893 237.051 307.942 237.863 307.866L238.204 307.825C261.835 304.344 281.288 289.09 292.336 268.202H292.337C293.097 266.761 293.654 265 294.185 263.33C294.725 261.63 295.237 260.026 295.905 258.786C296.267 258.113 296.765 257.727 297.21 257.574Z" fill="white" stroke="#3C6AFF" stroke-width="1.2"/>
</svg>
